<svg width="33" height="33" viewBox="0 0 33 33" fill="none" xmlns="http://www.w3.org/2000/svg">
<path d="M24.8826 8.92999H24.9M11.9285 31.43H20.9285C28.4285 31.43 31.4285 28.43 31.4285 20.93V11.93C31.4285 4.42999 28.4285 1.42999 20.9285 1.42999H11.9285C4.42847 1.42999 1.42847 4.42999 1.42847 11.93V20.93C1.42847 28.43 4.42847 31.43 11.9285 31.43ZM16.4285 21.68C19.328 21.68 21.6785 19.3295 21.6785 16.43C21.6785 13.5305 19.328 11.18 16.4285 11.18C13.529 11.18 11.1785 13.5305 11.1785 16.43C11.1785 19.3295 13.529 21.68 16.4285 21.68Z" stroke="white" stroke-width="2.5" stroke-linecap="round" stroke-linejoin="round"/>
</svg>
